<svg xmlns="http://www.w3.org/2000/svg" width="22" height="23" viewBox="0 0 22 23">
    <path fill="#000" fill-rule="nonzero" d="M11 0C4.936 0 0 4.936 0 11s4.936 11 11 11 11-4.936 11-11S17.064 0 11 0zm0 1.833c2.323 0 4.431.875 6.044 2.292-.173.24-.404.53-.773.888-.785.76-2.039 1.672-3.953 2.378a43.596 43.596 0 0 0-3.41-5.329A9.27 9.27 0 0 1 11 1.833zm-3.896.86c.751.984 2.09 2.81 3.438 5.242-3.728.99-7.147 1.115-8.508 1.117a9.14 9.14 0 0 1 5.07-6.36zm11.2 2.778a9.139 9.139 0 0 1 1.863 5.3c-.818-.182-2.02-.363-3.581-.373a22.227 22.227 0 0 0-2.721.172c-.23-.523-.478-1.027-.717-1.518 2.057-.788 3.457-1.825 4.383-2.721.317-.306.561-.592.774-.86zm-6.932 4.125c.213.427.426.865.63 1.318C8.088 12 5.27 15.323 4.069 16.987A9.134 9.134 0 0 1 1.833 11v-.115c1.238.013 5.18-.07 9.54-1.289zm5.214 2.607c1.637-.002 2.769.23 3.437.401a9.113 9.113 0 0 1-3.752 5.901 32.796 32.796 0 0 0-1.69-6.187 21.24 21.24 0 0 1 2.005-.115zm-3.867.43c.822 2.093 1.514 4.386 1.862 6.818a9.205 9.205 0 0 1-3.581.716 9.154 9.154 0 0 1-5.586-1.891c.94-1.29 3.711-4.72 7.305-5.643z" opacity=".6"/>
</svg>
