<svg xmlns="http://www.w3.org/2000/svg" xmlns:xlink="http://www.w3.org/1999/xlink" width="1440" height="203" viewBox="0 0 1440 203">
    <defs>
        <path id="a" d="M.395 14c-.152 0-.264-.019-.264-.073 0-.019.013-.041.042-.069.292-.275.996-.739.996-.739l2.906-6.177c-.103-.346-.407-1.706.26-2.94.025-.046.052-.09.079-.133.02-.031.04-.058.06-.087.008-.013.018-.025.027-.038l.056-.072c.01-.013.022-.025.032-.039.017-.017.034-.037.05-.055l.031-.033c.023-.022.046-.045.07-.066a1.81 1.81 0 0 1 .084-.074l.03-.024a1.58 1.58 0 0 1 .074-.054l.035-.025c.02-.014.04-.026.062-.039a.396.396 0 0 1 .042-.024.768.768 0 0 1 .06-.034c.012-.005.024-.013.036-.019l.079-.037a1.347 1.347 0 0 1 .207-.076l.035-.01c.022-.006.044-.013.067-.018.011-.004.023-.006.034-.009l.073-.015.033-.005c.027-.004.054-.008.081-.014.01 0 .019 0 .028-.002.022-.002.043-.006.065-.007l.029-.002c.027-.002.054-.004.08-.004.01-.002.02-.002.03-.002H6.09c.027 0 .053 0 .079.002l.026.002a.94.94 0 0 1 .076.004l.02.001a.635.635 0 0 1 .084.01h.008c.268.039.479.105.576.139a.488.488 0 0 1 .113.025c-.146-.566 0-1.425.394-2.131.302-.54.673-.826.995-.826.209 0 .397.12.533.369.137.25.204.576.207.924v.043a3.021 3.021 0 0 1-.432 1.539c-.37.586-.868.829-1.247.674.038.131.058.272.063.422.183.756.526 2.353.014 3.123-.414.623-1.11.756-1.574.794l-.797 2.853-1.135 2.07.034.004s.157.385.151.574c-.005.183-1.065-.023-1.065-.023l.46-.614.804-2.129.36-2.276-.415-.272-2.779 4.875-.416.755S.72 14 .395 14zm7.032-7.394c.057-.342.025-.779-.04-1.209a3.832 3.832 0 0 1-.049.148l-.028.08-.013.037c-.01.03-.021.058-.032.086l-.01.028-.044.111a13.632 13.632 0 0 0-.046.111l-.014.036-.035.079-.014.032a3.236 3.236 0 0 1-.048.109l-.05.108c-.005.008-.009.018-.013.027-.013.025-.026.053-.038.08-.006.01-.01.022-.016.031a4.33 4.33 0 0 1-.04.083l-.01.021-.053.103a5.078 5.078 0 0 1-.052.1l-.014.027a2.089 2.089 0 0 0-.053.098c-.016.031-.032.062-.05.091v.003a4.498 4.498 0 0 0-.053.093l-.01.018a3.157 3.157 0 0 1-.04.071c-.005.009-.01.016-.013.024l-.04.069a.08.08 0 0 0-.01.016l-.094.16a.09.09 0 0 1-.01.017l-.035.059-.003.004c.33-.059.702-.197.93-.552a.984.984 0 0 0 .127-.329l.012-.062v-.008zm-3.02-.352c.323-.627 1.013-1.893 1.692-2.621h-.172c-.117.006-.235.02-.352.044l-.01.003a.697.697 0 0 0-.075.019l-.016.003a6.07 6.07 0 0 0-.088.028l-.064.021a.099.099 0 0 1-.02.009l-.061.026a.065.065 0 0 0-.022.009l-.058.03-.021.009-.057.034a2.782 2.782 0 0 0-.075.047l-.019.014-.054.042-.015.012c-.02.015-.038.033-.056.049l-.01.009c-.021.022-.042.041-.061.063-.06.066-.114.139-.159.223l-.227 1.927z"/>
        <path id="c" d="M0 13.345V.907h1.803v12.438H0z"/>
        <path id="e" d="M11.1 5.924c0 .202-.072.38-.202.459-.13.081-.287.047-.412-.071-.382.248-.793.401-1.198.316a3.016 3.016 0 0 1-.38-.098l-.025-.008-.069-.025c-.01-.003-.019-.005-.028-.009a2.087 2.087 0 0 0-.069-.025l-.024-.011a2.824 2.824 0 0 1-.218-.093c-.01-.005-.021-.009-.031-.015a.669.669 0 0 1-.056-.027.263.263 0 0 1-.04-.02l-.05-.025-.043-.024a1.052 1.052 0 0 1-.046-.026l-.05-.029-.037-.022a1.4 1.4 0 0 1-.081-.052L8.01 6.1l-.053-.037-.031-.023a2.823 2.823 0 0 1-.078-.059l-.049-.04-.024-.02a1.643 1.643 0 0 1-.068-.062c-.03-.031-.06-.061-.09-.089l-.007-.008a5.278 5.278 0 0 1-.08-.087c-.368 1.343-1.48 2.82-1.48 2.82l-3.857 4.738.018.004s.24.486.224.713c-.003.055-.073.075-.175.075-.305 0-.897-.181-.897-.181l.491-.683.01.001 2.793-4.435-.23-.177-2.845 4.576-.427.714s-1.094.045-1.094-.128c0-.019.013-.04.043-.065.295-.238 1.157-.588 1.157-.588L4.1 7.185c-.095-.336-.392-1.727.287-2.904.569-.985 1.275-1.166 1.828-1.055.12.028.232.068.335.116l.01.004a.883.883 0 0 1 .053.026c.004.001.007.004.01.006l.052.028h.001c.054.031.103.061.15.092l.011.009.037.026.014.01.033.026.011.009c.037.03.07.059.099.086l.002.002.024.025.005.004.03.009c-.183-.572-.04-1.458.377-2.162.11-.374.387-.923.526-1.118.136-.189.285-.27.436-.27.166 0 .335.1.49.26.353.378.428.822.411 1.495-.015.755-.152 1.112-.424 1.54-.04.076-.083.15-.13.218-.363.531-.84.738-1.215.592a1.5 1.5 0 0 1 .07.284c.23.351.736 1.019 1.376 1.27.108.046.218.083.331.103.319.069.631.014.935-.157.005-.194.078-.375.206-.465l.562.319c.039.103.057.21.057.311zm-6.664.599c.33-.588 1.037-1.778 1.727-2.432-.339-.037-.714-.015-1.022.131a1.094 1.094 0 0 0-.457.408l-.248 1.893z"/>
        <path id="g" d="M.035 9.374c0-.01.01-.025.03-.042.21-.165.741-.434.741-.434l.62-1.427-.075-.025s.508-1.614 1.069-2.363l.034-.085c-.127-.287-.467-1.264-.075-2.014.187-.357.532-.47.88-.46.214-.369.406-.726.461-.832.157-.299.31-.596.494-.832.144-.181.35-.31.562-.31.209 0 .425.125.599.448.206.187.363.874.407 1.31.057.52.003.848-.147 1.145-.087.17-.434.605-.72 1.053.12.47.179.932.017 1.168-.251.363-.81.299-1.16.238-.048.35-.337.915-1.392 1.885l-.047-.017-.857 1.165.016.002s.2.265.23.395c.03.124-.742.014-.742.014l.292-.43.009.001.716-1.26-.218-.075-.739 1.327-.236.45s-.327.046-.555.05H.198c-.095-.002-.163-.014-.163-.045zM4.665 5.4c.071-.11.074-.304.037-.533-.133.249-.214.47-.178.61a2.05 2.05 0 0 0-.464-.258l-.313.35-.004-.003.001.005c.282.054.735.112.92-.171zm-1.766-.625l.117-.508c-.144-.249-.277-.513-.463-.754.081-.025.234-.23.404-.493a.533.533 0 0 0-.318.25c-.27.502-.02 1.27.089 1.53a.286.286 0 0 1 .17-.025z"/>
        <path id="i" d="M0 118.387h184.445V.175H0z"/>
        <path id="k" d="M.2 15.935c0-.02.059-.045.192-.077 1.18-.277 4.046-.745 4.046-.745l4.508-2.402-3.789-.305s6.62-2.765 11.094-3.846c-.519-.47-1.408-1.723 1.006-2.853 2.652-1.239 8.635-1.009 10.393-.874-.548-.376-.507-.912.076-1.459a.289.289 0 0 1 .039-.051l.006.008a1.85 1.85 0 0 1 .124-.105.627.627 0 0 0-.13.097c-.854-.833.899-1.689 2.218-2.224-.004.068-.038.123-.035.19.688-.224 1.58-.305 2.526-.305 1.26 0 2.616.143 3.719.279-.695.914 2.419 1.966 1.522 2.88-.659.666-2.48.648-4.124.764-1.308.377-2.844.531-4.099.426-.057.109-.12.247-.176.402.093.2.033.413-.159.63-.095.79.169 1.677 1.532 1.96 1.341.284 3.119.199 4.451.076.051-.086.172-.168.364-.237.589-.208 1.608-.201 2.28.014.363.117.553.266.561.408v.018c-.006.115-.132.224-.383.306-.572.189-1.593.183-2.278-.014h-.003c-1.672.147-4.013.254-5.938-.126-1.37-.267-1.978-.831-2.197-1.441-.889.366-2.065.725-3.438 1.048l-.142.036.189.043-1.373.569c.228.296.363 1.368-5.224 4.378l-4.262-.342-5.633 2.097.078.001s.633.464.599.702c-.029.23-3.581.034-3.581.034l1.924-.757h.045l4.957-2.207-1.043-.084-5.084 2.291-1.66.777s-1.733.083-2.827.085H.998C.532 16 .2 15.982.2 15.935zM28.633 5.21c.068.029.133.06.19.09l.661.032-.851-.122zm-8.199 2.334c.443-.87 1.69-1.681 3.169-2.195-1.985.034-4.087.223-5.103.685-1.754.805-.965 1.834-.556 2.207.273-.035.53-.058.762-.068l1.402-.627.284.063.042-.065z"/>
        <path id="m" d="M0 12.681V.174h7.304v12.507H0z"/>
        <path id="o" d="M0 43.39h42.345V0H0z"/>
        <path id="q" d="M.167 14.93c0-.018.046-.04.147-.068 1.006-.263 3.557-.691 3.557-.691l2.974-2.272-.36-.041s2.44-2.57 5.129-3.763l.166-.135c-.61-.457-2.244-2.014-.36-3.208.898-.568 2.551-.749 4.219-.732a61.129 61.129 0 0 0 2.219-1.326c.751-.475 1.482-.948 2.37-1.324.693-.29 1.675-.494 2.695-.494 1.004 0 2.044.199 2.876.713.988.298 1.745 1.393 1.955 2.086.274.828.016 1.351-.708 1.824-.417.271-2.08.963-3.453 1.677.571.75.858 1.484.079 1.86-1.203.578-3.887.476-5.563.379-.233.559-1.622 1.458-6.684 3.002l-.228-.027-4.112 1.855.078.004s.955.422 1.099.629c.146.198-3.557.023-3.557.023l1.399-.685.044.001 3.437-2.008-1.044-.118-3.548 2.114-1.135.716s-1.57.073-2.662.079H.95c-.457-.003-.782-.022-.782-.07zM22.388 8.6c.347-.175.357-.484.183-.849-.639.396-1.028.75-.855.972-.733-.191-1.478-.302-2.227-.412l-1.504.559-.021-.006a.023.023 0 0 0 .009.008c1.35.087 3.525.179 4.415-.272zm-8.474-.996l.563-.808c-.693-.397-1.328-.817-2.221-1.202.389-.039 1.122-.365 1.936-.785-.654.071-1.196.198-1.523.399-1.302.799-.095 2.021.423 2.437.278-.042.554-.057.822-.041z"/>
        <path id="s" d="M1.636 14C1.005 14 .54 13.98.54 13.927c0-.019.054-.041.173-.069 1.209-.275 4.123-.739 4.123-.739l12.027-6.177c-.43-.346-1.684-1.706 1.075-2.94.103-.046.213-.09.326-.133.079-.031.162-.058.246-.087l.113-.038.231-.072c.045-.013.091-.025.135-.039.07-.017.138-.037.208-.055l.128-.033c.094-.022.189-.045.285-.066.043-.01.087-.02.132-.027l.215-.047.129-.024c.101-.019.202-.037.304-.054l.145-.025c.084-.014.17-.026.256-.039.057-.009.115-.017.174-.024.082-.012.166-.024.251-.034.049-.005.098-.013.147-.019l.326-.037a10.938 10.938 0 0 1 .385-.036l.136-.013c.112-.01.226-.019.337-.027l.143-.01.277-.018c.047-.004.095-.006.143-.009l.3-.015.137-.005c.111-.004.225-.008.338-.014.037 0 .076 0 .113-.002.091-.002.181-.006.272-.007l.117-.002c.113-.002.224-.004.334-.004.039-.002.08-.002.119-.002H25.199c.111 0 .22 0 .327.002l.11.002a16.027 16.027 0 0 1 .65.013c.032 0 .063 0 .094.002h.034c1.107.039 1.98.105 2.381.139.158.004.316.012.467.025-.601-.566 0-1.425 1.633-2.131 1.248-.54 2.782-.826 4.117-.826.863 0 1.642.12 2.206.369.566.25.844.576.855.924v.043c-.016.525-.634 1.097-1.787 1.539-1.53.586-3.594.829-5.162.674.158.131.241.272.264.422.756.756 2.173 2.353.057 3.123-1.715.623-4.596.756-6.516.794l-3.294 2.853-4.698 2.07.142.004s.647.385.623.574c-.019.183-4.406-.023-4.406-.023l1.899-.614h.003l3.328-2.129 1.491-2.276-1.721-.272L6.8 13.161l-1.724.755S2.978 14 1.636 14zm29.096-7.394c.236-.342.104-.779-.164-1.209h-.002a3.792 3.792 0 0 1-.202.148c-.038.028-.076.053-.116.08l-.055.037c-.043.03-.086.058-.131.086l-.043.028a28.745 28.745 0 0 1-.218.134l-.153.088-.059.036-.143.079a5.707 5.707 0 0 1-.248.133.023.023 0 0 1-.009.008l-.208.108c-.018.008-.035.018-.053.027-.053.025-.106.053-.159.08-.022.01-.041.022-.063.031a8.92 8.92 0 0 1-.17.083l-.041.021-.218.103a11.27 11.27 0 0 1-.214.1l-.057.027c-.055.024-.11.049-.164.075a.936.936 0 0 0-.056.023c-.068.031-.134.062-.203.091l-.006.003-.216.093-.041.018a8.462 8.462 0 0 1-.168.071l-.054.024-.164.069c-.014.004-.026.01-.038.016l-.393.16a.275.275 0 0 1-.043.017l-.144.059a.028.028 0 0 0-.012.004c1.363-.059 2.904-.197 3.85-.552.243-.091.412-.203.523-.329.019-.019.034-.041.05-.062l.005-.008zm-12.498-.352c1.338-.627 4.195-1.893 7.005-2.621h-.716c-.482.006-.971.02-1.454.044l-.04.003c-.104.005-.209.011-.313.019l-.064.003a91.634 91.634 0 0 0-.364.028l-.265.021c-.03.004-.057.007-.086.009l-.252.026a80.555 80.555 0 0 0-.33.039l-.086.009-.237.034a29.201 29.201 0 0 0-.31.047l-.076.014-.227.042-.062.012c-.078.015-.156.033-.231.049-.015.004-.029.005-.043.009-.086.022-.17.041-.25.063a4.386 4.386 0 0 0-.658.223l-.941 1.927z"/>
        <path id="u" d="M0 13.345V.907h7.462v12.438H0z"/>
        <path id="w" d="M45.93 5.924c0 .202-.298.38-.834.459a4.905 4.905 0 0 1-1.707-.071c-1.58.248-3.28.401-4.957.316a47.127 47.127 0 0 1-1.574-.098l-.102-.008-.284-.025c-.039-.003-.078-.005-.115-.009l-.285-.025-.099-.011a38.25 38.25 0 0 1-.904-.093c-.044-.005-.088-.009-.13-.015a8.5 8.5 0 0 1-.23-.027 3.25 3.25 0 0 1-.162-.02l-.21-.025-.18-.024a12.121 12.121 0 0 1-.188-.026l-.21-.029-.152-.022a14.792 14.792 0 0 1-.335-.052l-.124-.019-.219-.037-.129-.023-.201-.036a8.129 8.129 0 0 0-.119-.023l-.204-.04-.098-.02c-.097-.02-.19-.041-.281-.062-.128-.031-.25-.061-.372-.089l-.032-.008a31.239 31.239 0 0 1-.333-.087c-1.521 1.343-6.125 2.82-6.125 2.82L9.079 13.233l.073.004s.994.486.929.713c-.015.055-.304.075-.727.075-1.258 0-3.708-.181-3.708-.181l2.031-.683.043.001 11.556-4.435-.953-.177L6.55 13.126l-1.768.714s-4.524.045-4.524-.128c0-.019.054-.04.176-.065 1.222-.238 4.788-.588 4.788-.588l11.743-5.874c-.394-.336-1.623-1.727 1.187-2.904 2.354-.985 5.275-1.166 7.564-1.055h.004c.494.028.959.068 1.384.116l.039.004.22.026c.016.001.031.004.046.006l.212.028h.005c.221.031.427.061.616.092l.05.009.151.026.058.01.138.026.045.009c.154.03.293.059.409.086l.01.002.098.025.02.004.123.009c-.757-.572-.165-1.458 1.562-2.162.458-.374 1.603-.923 2.178-1.118a5.682 5.682 0 0 1 1.801-.27c.69 0 1.388.1 2.03.26 1.461.378 1.769.822 1.7 1.495-.06.755-.627 1.112-1.756 1.54a5.94 5.94 0 0 1-.54.218c-1.499.531-3.475.738-5.023.592.133.09.228.186.288.284.949.351 3.046 1.019 5.696 1.27.444.046.899.083 1.369.103 1.319.069 2.611.014 3.868-.157.02-.194.323-.375.851-.465l2.329.319c.158.103.233.21.233.311zm-27.574.599c1.368-.588 4.291-1.778 7.148-2.432-1.403-.037-2.958-.015-4.232.131-.765.092-1.428.225-1.89.408l-1.026 1.893z"/>
        <path id="y" d="M42.941.183v43.855H.251V.183h42.69z"/>
    </defs>
    <g fill="none" fill-rule="evenodd">
        <path fill="#FFF1D1" d="M0 104s364.694-11.59 765.23 2.04C1165.769 119.667 1440 153 1440 153v50H0v-99z"/>
        <g transform="translate(437.8 145.042)">
            <mask id="b" fill="#fff">
                <use xlink:href="#a"/>
            </mask>
            <path d="M7.427 6.606l-.001.008-.012.062a.984.984 0 0 1-.127.329c-.228.355-.6.493-.93.552 0-.002.002-.004.003-.004l.034-.059a.09.09 0 0 0 .01-.017l.096-.16a.08.08 0 0 1 .01-.016l.039-.069.013-.024.04-.071.01-.018.052-.093.002-.003c.017-.029.033-.06.049-.091a2.089 2.089 0 0 1 .053-.098l.014-.027a5.078 5.078 0 0 0 .052-.1l.052-.103.01-.021a4.33 4.33 0 0 0 .041-.083c.006-.009.01-.021.016-.031.012-.027.025-.055.038-.08.004-.009.008-.019.013-.027l.05-.108a3.236 3.236 0 0 0 .062-.141l.035-.079.014-.036a13.632 13.632 0 0 1 .046-.111l.044-.111.01-.028.032-.086.013-.037.028-.08a3.832 3.832 0 0 0 .049-.148c.065.43.097.867.04 1.209m-3.02-.352c-.083-.47-.133-1.275.227-1.927.045-.084.099-.157.159-.223l.06-.063.01-.009c.019-.016.038-.034.057-.049l.015-.012.054-.042.019-.014a2.782 2.782 0 0 1 .075-.047l.057-.034c.007-.002.014-.006.02-.009l.06-.03a.065.065 0 0 1 .02-.009l.061-.026a.099.099 0 0 0 .021-.009l.064-.021a6.07 6.07 0 0 1 .088-.028l.016-.003a.697.697 0 0 1 .075-.019l.01-.003c.117-.024.235-.038.351-.044H6.1c-.679.728-1.37 1.994-1.692 2.621M8.994.58c-.347-.634-1.031-.431-1.528.457-.394.706-.54 1.565-.394 2.131a.488.488 0 0 0-.113-.025 3.177 3.177 0 0 0-.576-.139h-.008c-.007-.002-.015-.002-.023-.002a.635.635 0 0 0-.061-.008l-.02-.001a.94.94 0 0 0-.076-.004l-.026-.002c-.026-.002-.052-.002-.08-.002H6.004c-.01 0-.02 0-.029.002-.026 0-.053.002-.08.004l-.029.002c-.022.001-.043.005-.065.007-.01.002-.019.002-.028.002-.027.006-.054.01-.081.014l-.033.005-.073.015c-.011.003-.023.005-.034.009-.023.005-.045.012-.067.018l-.035.01a1.347 1.347 0 0 0-.114.04.762.762 0 0 0-.093.036l-.079.037c-.012.006-.024.014-.036.019a.768.768 0 0 0-.06.034.396.396 0 0 0-.042.024c-.021.013-.042.025-.062.039l-.035.025a1.58 1.58 0 0 0-.074.054l-.03.024a1.81 1.81 0 0 0-.053.047.224.224 0 0 0-.032.027l-.069.066-.03.033-.05.055-.033.039a7.244 7.244 0 0 0-.056.072l-.028.038c-.02.029-.04.056-.059.087a2.208 2.208 0 0 0-.079.133c-.667 1.234-.363 2.594-.26 2.94L1.17 13.119s-.704.464-.996.739c-.294.281 1.054.058 1.054.058l.416-.755 2.779-4.875.415.272-.36 2.276-.804 2.129-.46.614s1.06.206 1.065.023c.006-.189-.15-.574-.15-.574l-.035-.004 1.135-2.07.797-2.853c.464-.038 1.16-.171 1.574-.794.512-.77.17-2.367-.014-3.123a1.735 1.735 0 0 0-.063-.422c.379.155.877-.088 1.247-.674.472-.748.573-1.869.225-2.506" mask="url(#b)"/>
        </g>
        <path fill="#936444" d="M439.14 127l-.148 1.354c.387.715 1.395 3.06 1.407 5.28.014 2.657-.886 4.457-.895 4.474l.155 1.342c.046-.09 1.12-2.228 1.1-5.849-.018-3.549-1.456-6.3-1.62-6.602M438.85 118.059c-.46 0-.834 2.024-.834 4.52 0 2.499.373 4.524.835 4.524.46 0 .834-2.025.834-4.523 0-2.497-.374-4.521-.834-4.521"/>
        <path fill="#936444" d="M438.867 126.607c-1.216-.05-.945 11.89-.945 11.89h2.072s.09-11.837-1.127-11.89"/>
        <path fill="#4781A5" d="M439.994 138.496h-2.072l.541 17.964h.482l-.103-14.852h.464l.889 6.221.573 7.428.43.14-.308-8.132z"/>
        <path fill="#936444" d="M438.675 128.355l-.148-1.355c-.164.3-1.601 3.052-1.62 6.6-.02 3.622 1.055 5.76 1.1 5.85l.156-1.341c-.01-.018-.91-1.817-.895-4.475.012-2.22 1.02-4.564 1.407-5.28"/>
        <path fill="#4C423C" d="M438.463 156.46s-.43 1.414-.567 2.191c-.138.778 1.083.142 1.083.142l-.034-2.333h-.482zM441.223 155.115h-.467l-.032 2.334s1.182.638 1.049-.142c-.133-.777-.55-2.192-.55-2.192"/>
        <path fill="#DBCBBF" d="M439.627 128.055c-.22.804-.507 1.257-.802 1.257-.293 0-.577-.444-.796-1.233-.45 1.11-1.046 2.97-1.115 5.167.122-.17.25-.256.384-.26.102-1.195.445-2.377.78-3.276-.275 3.523-.156 8.786-.156 8.786h2.072s.037-4.86-.257-8.366c.252.739.487 1.619.597 2.52.15.13.293.376.422.724-.051-2.27-.668-4.19-1.129-5.32"/>
        <g transform="translate(432 125.042)">
            <mask id="d" fill="#fff">
                <use xlink:href="#c"/>
            </mask>
            <path fill="#D1A988" d="M1.803 2.288L1.666.908C1.309 1.047.044 2.665 0 7.333c-.033 3.636 1.01 5.915 1.055 6.011l.165-1.328C1.21 12 .327 10.08.36 7.412c.028-2.228 1.05-4.455 1.442-5.125" mask="url(#d)"/>
        </g>
        <path fill="#D1A988" d="M436.027 124.2c-.71 2.563-1.82 1.835-1.83 1.827l-.066 2.335c.028.02.389.26.847.027.404-.206.937-1.198 1.33-2.61.358-1.294.538-3.513.633-5.758l-.375.192c-.09 1.678-.27 3.016-.539 3.987"/>
        <path fill="#D1A988" d="M436.87 118.367c-.192-.203-.39.345-.444 1.226-.054.88.058 1.76.25 1.965.192.205.39-.343.445-1.225.053-.88-.059-1.76-.25-1.966"/>
        <path fill="#263E59" d="M433.54 155.54l.327.041.005-14.924.258.032.01 14.997.326.183.579-18.192-2.067-.258z"/>
        <path fill="#331A08" d="M433.54 155.54s-.593 1.348-.736 2.111c-.143.764 1.08.278 1.08.278l-.017-2.348-.326-.04zM434.492 155.588l-.362-.045-.05 2.338s1.175.788 1.047-.01c-.127-.798-.635-2.283-.635-2.283"/>
        <path fill="#F95006" d="M436.088 126.486l-.306-1.56c-.506 1.23-1.112 1.254-1.407 1.175-.105-.297-.227-.477-.367-.501-.135-.022-.253.109-.356.358-.31.142-1.213 1.295-1.536 4.316.142.102.281.307.411.619.162-.848.419-1.637.671-2.273-.3 3.502-.22 8.8-.22 8.8l2.067.257s.083-5.641-.262-9.213a.968.968 0 0 0 .195-.074c.332-.17.752-.872 1.11-1.904"/>
        <path fill="#D1A988" d="M433.95 117.001c-.459-.058-.846 1.93-.864 4.437-.019 2.507.339 4.586.799 4.644.46.057.846-1.929.865-4.436.018-2.508-.34-4.587-.8-4.645"/>
        <path fill="#331A08" d="M433.117 121.871l.052.11a1.165 1.165 0 0 1-.051-.16l-.001.05M433.596 116.149c-.298.34-.546 1.113-.584 2.405-.02.717.013 2.559.105 3.267-.024-4.444 1.45-3.237 1.623-.05.016-1.972-.002-3.047-.334-4.506-.243-1.072-.453-1.524-.81-1.116"/>
        <g transform="translate(507.883 133)">
            <mask id="f" fill="#fff">
                <use xlink:href="#e"/>
            </mask>
            <path d="M4.436 6.523c-.078-.475-.12-1.281.248-1.893.112-.183.272-.316.457-.408.308-.146.683-.168 1.022-.131-.69.654-1.396 1.844-1.727 2.432m6.607-.91c-.112-.313-.364-.456-.562-.319-.128.09-.201.271-.206.465a1.297 1.297 0 0 1-.935.157 1.504 1.504 0 0 1-.33-.103c-.641-.251-1.148-.919-1.377-1.27a1.5 1.5 0 0 0-.07-.284c.374.146.852-.061 1.214-.592.048-.068.09-.142.13-.218.273-.428.41-.785.425-1.54.017-.673-.058-1.117-.41-1.495-.296-.306-.641-.387-.927.01a4.977 4.977 0 0 0-.526 1.118c-.417.704-.56 1.59-.378 2.162l-.03-.009c0-.002-.003-.003-.004-.004a2.084 2.084 0 0 0-.024-.025l-.002-.002a1.517 1.517 0 0 0-.099-.086l-.01-.009-.034-.026-.014-.01a1.253 1.253 0 0 1-.037-.026l-.012-.009a2.51 2.51 0 0 0-.149-.092l-.052-.028c-.004-.002-.007-.005-.011-.006a.883.883 0 0 0-.053-.026l-.01-.004a1.719 1.719 0 0 0-.334-.116h-.001c-.553-.111-1.26.07-1.828 1.055-.68 1.177-.382 2.568-.287 2.904l-2.838 5.874s-.862.35-1.157.588c-.297.248 1.05.193 1.05.193l.428-.714L4.428 8.55l.23.177-2.792 4.435-.01-.001-.492.683s1.058.324 1.072.106c.016-.227-.224-.713-.224-.713l-.018-.004L6.05 8.495s1.113-1.477 1.48-2.82l.08.087.009.008.09.089c.021.021.044.042.067.062l.024.02.05.04.028.023.049.036.03.023.054.037.03.019a1.4 1.4 0 0 0 .08.052l.037.022.051.029.046.026.043.024.05.025a.263.263 0 0 0 .04.02c.018.01.037.019.056.027.01.006.02.01.031.015.071.034.144.065.218.093l.024.011.07.025c.008.004.018.006.027.009l.069.025.024.008c.127.041.255.075.38.098.406.085.817-.068 1.199-.316.125.118.281.152.412.071.195-.118.26-.462.145-.77" mask="url(#f)"/>
        </g>
        <g>
            <g transform="translate(442.833 120.084)">
                <mask id="h" fill="#fff">
                    <use xlink:href="#g"/>
                </mask>
                <path d="M4.664 5.4c-.185.283-.638.225-.92.17a.015.015 0 0 1-.002-.004l.005.004.313-.351c.156.069.311.138.464.258-.036-.14.045-.361.178-.61.037.23.034.423-.038.533zM2.9 4.775a.286.286 0 0 0-.171.025c-.108-.26-.36-1.028-.089-1.53a.533.533 0 0 1 .318-.25c-.17.263-.323.468-.404.493.186.241.319.505.463.754l-.117.508zM5.375.998C5.025.348 4.5.5 4.215.86c-.186.236-.338.533-.495.832-.055.106-.247.463-.462.832-.347-.01-.692.103-.879.46-.392.75-.052 1.727.075 2.014l-.034.085c-.56.749-1.069 2.363-1.069 2.363l.075.025-.62 1.427s-.531.269-.74.434c-.211.17.738.037.738.037l.236-.45.74-1.327.217.074-.716 1.261h-.01l-.29.43s.77.11.74-.015c-.03-.13-.229-.395-.229-.395l-.016-.002.857-1.165.047.017c1.055-.97 1.344-1.534 1.393-1.885.349.06.908.125 1.159-.238.162-.236.102-.697-.017-1.168.286-.448.633-.883.72-1.053.15-.297.204-.626.147-1.145-.044-.436-.201-1.123-.407-1.31z" mask="url(#h)"/>
            </g>
            <path fill="#331A08" d="M444.467 106.41c-.03-1.001-.128-1.75-.366-2.46-.192-.577-.545-1.177-.742-.864-.457.024-.75 1.62-.815 2.856-.042.793-.04 1.6-.04 2.416 0 .652-.013 4.83-.163 5.367.468.193.815.929 1.31.876.382-.04.636-.758.989-.93-.289-.766-.142-6.185-.173-7.26"/>
            <path fill="#D1A988" d="M443.498 103.768c-.397 0-.72 1.272-.72 2.84 0 1.568.323 2.839.72 2.839.397 0 .72-1.271.72-2.84 0-1.567-.323-2.839-.72-2.839"/>
            <path fill="#D1A988" d="M444.039 114.336c.29-2.597.129-5.18-.526-5.2-.694-.02-.853 2.869-.364 5.2.202.962-.274 2.265-.274 2.265h1.43s-.405-1.018-.266-2.265M443.342 127.88h.238l-.09-9.325h.223l.104 9.37.192.089.296-11.413h-1.43z"/>
            <path fill="#D1A988" d="M443.524 109.833l-.127-.85c-.141.189-1.38 1.916-1.397 4.144-.017 2.274.91 3.617.95 3.673l.133-.842c-.008-.012-.784-1.141-.771-2.81.01-1.394.879-2.866 1.212-3.315"/>
            <path fill="#D1A988" d="M443.614 108.982l-.128.85c.334.45 1.203 1.922 1.213 3.316.012 1.67-.763 2.799-.771 2.81l.134.842c.04-.056.965-1.398.948-3.673-.016-2.228-1.255-3.955-1.396-4.145"/>
            <path fill="#F95006" d="M443.342 127.88s-.37.888-.489 1.376c-.119.49.756.09.756.09l-.03-1.466h-.237zM444.03 127.836h-.223l-.03 1.465s.843.4.728-.089c-.115-.488-.475-1.376-.475-1.376M444.024 115.468h-.882c-.601.866-.057 8.127-.057 8.127h1.09c.638-7.86-.151-8.127-.151-8.127"/>
            <path fill="#F95006" d="M443.55 111.673l-.623-1.467h-.267l.044 1.2.438 4.196h.986l.178-4.063.022-1.333h-.311z"/>
            <path fill="#331A08" d="M443.55 103.345c-.239-.151-.527.274-.618 1-.044.347-.265 1.297-.381 1.997h1.752c-.018-.511-.061-1-.125-1.349-.133-.724-.352-1.47-.628-1.648"/>
        </g>
        <g>
            <path fill="#3CB5E4" d="M1161.222 69.259h7.5v-5.383h-7.5z"/>
            <path fill="#248BBD" d="M1104.258 181.825h47.01v-64.599h-47.01z"/>
            <path fill="#FFF" d="M1112.501 133.507h9.473v-9.453h-9.473zM1112.501 156.616h9.473v-17.331h-9.473zM1112.501 178.324h9.473v-17.331h-9.473z"/>
            <path fill="#3CB5E4" d="M1069 137.009h35.258V114.6H1069z"/>
            <path fill="#248BBD" d="M1069 159.417h35.258v-22.408H1069z"/>
            <path fill="#1C749C" d="M1069 181.825h35.258v-22.408H1069z"/>
            <path fill="#FFF" d="M1081.893 130.531h9.472v-9.453h-9.472zM1081.893 156.879h9.472v-17.332h-9.472zM1081.893 179.287h9.472v-17.332h-9.472zM1131.27 133.507h9.473v-9.453h-9.472zM1131.27 156.616h9.473v-17.331h-9.472zM1131.27 178.324h9.473v-17.331h-9.472z"/>
            <path fill="#248BBD" d="M1171.177 181.825h47.01v-64.599h-47.01z"/>
            <path fill="#1C749C" d="M1142.322 181.825h38.064v-49.368h-38.064z"/>
            <path fill="#248BBD" d="M1145.391 181.825h6.14v-49.368h-6.14zM1171.177 181.825h6.139v-49.368h-6.14z"/>
            <path fill="#FFF" d="M1200.47 133.507h9.473v-9.453h-9.473zM1200.47 156.616h9.473v-17.331h-9.473zM1200.47 178.324h9.473v-17.331h-9.473z"/>
            <path fill="#3CB5E4" d="M1218.187 137.009h35.258V114.6h-35.258z"/>
            <path fill="#248BBD" d="M1218.187 159.417h35.258v-22.408h-35.258z"/>
            <path fill="#1C749C" d="M1218.187 181.825h35.258v-22.408h-35.258z"/>
            <path fill="#FFF" d="M1231.08 130.531h9.472v-9.453h-9.472zM1231.08 156.879h9.472v-17.332h-9.472zM1231.08 179.287h9.472v-17.332h-9.472zM1181.702 133.507h9.472v-9.453h-9.472zM1181.702 156.616h9.472v-17.331h-9.472zM1181.702 178.324h9.472v-17.331h-9.472z"/>
            <path fill="#1C749C" d="M1151.268 138.059h19.91v-36.413h-19.91z"/>
            <path fill="#3CB5E4" d="M1154.952 96.394h12.542V83.44h-12.542z"/>
            <path fill="#3CB5E4" d="M1157.933 85.89h6.579V72.936h-6.579z"/>
            <path fill="#248BBD" d="M1148.11 101.646h26.224v-7.878h-26.223z"/>
            <g transform="translate(1069 63.439)">
                <path fill="#FFF" d="M98.976 48.449c0 3.722-3.024 6.739-6.754 6.739-3.73 0-6.753-3.017-6.753-6.74 0-3.722 3.024-6.74 6.753-6.74 3.73 0 6.754 3.018 6.754 6.74z"/>
                <path fill="#1F2B38" d="M94.897 50.024h-2.542a.526.526 0 0 1-.527-.525v-4.727a.526.526 0 0 1 1.053 0v4.202h2.016a.525.525 0 1 1 0 1.05M92.223 9.76a.263.263 0 0 1-.263-.263V.437a.263.263 0 0 1 .526 0v9.06a.263.263 0 0 1-.263.263"/>
                <mask id="j" fill="#fff">
                    <use xlink:href="#i"/>
                </mask>
                <path fill="#3CB5E4" d="M73.322 69.019h38.064v-8.403H73.322zM73.322 118.387h38.064V94.053H73.322z" mask="url(#j)"/>
                <path fill="#1C749C" d="M105.247 118.387H79.46v-7.09c0-7.107 5.772-12.867 12.893-12.867 7.12 0 12.893 5.76 12.893 12.866v7.09z" mask="url(#j)"/>
            </g>
        </g>
        <g>
            <path fill="#479CFF" d="M1317.965 82.374h10.725v-8h-10.725z"/>
            <path fill="#606060" d="M1329.913 98.789c0-6.576-5.35-11.907-11.949-11.907s-11.949 5.33-11.949 11.907v.336h23.898v-.336z"/>
            <path fill="#F5A623" d="M1306.016 117.624h23.897v-18.5h-23.897z"/>
            <path fill="#1F2B38" d="M1317.965 87.258a.377.377 0 0 1-.377-.376V74.374a.377.377 0 0 1 .754 0v12.508c0 .208-.17.376-.377.376"/>
            <path fill="#414141" d="M1250.666 133.124h134.597v-15.5h-134.597z"/>
            <path fill="#DD9622" d="M1269.231 168h97.467v-34.875h-97.467z"/>
            <path fill="#F6A623" d="M1186.064 168h83.167v-34.875h-83.167zM1366.698 168h83.167v-34.875h-83.167z"/>
            <path fill="#E2A73F" d="M1186.063 202.875h83.167V168h-83.167z"/>
            <path fill="#F6A623" d="M1269.231 202.875h97.467V168h-97.467z"/>
            <path fill="#E2A73F" d="M1366.698 202.874h83.167V168h-83.167z"/>
            <path fill="#FFF" d="M1277.196 160.625h10.287v-22.25h-10.287zM1295.009 160.625h10.285v-22.25h-10.285zM1312.822 160.625h10.286v-22.25h-10.286zM1330.634 160.625h10.286v-22.25h-10.286zM1348.446 160.625h10.286v-22.25h-10.286zM1277.196 188.125h10.287v-13.813h-10.287zM1295.009 188.125h10.285v-13.813h-10.285z"/>
            <path fill="#3B3B3B" d="M1310.45 202.875h15.028v-30.062h-15.029z"/>
            <path fill="#FFF" d="M1330.634 188.125h10.286v-13.813h-10.286zM1348.446 188.125h10.286v-13.813h-10.286zM1204.692 160.625h10.286v-22.25h-10.286zM1222.504 160.625h10.286v-22.25h-10.286zM1240.316 160.625h10.286v-22.25h-10.286zM1204.692 188.125h10.286v-13.813h-10.286zM1222.504 188.125h10.286v-13.813h-10.286zM1240.316 188.125h10.286v-13.813h-10.286zM1385.326 160.625h10.286v-22.25h-10.286zM1403.139 160.625h10.286v-22.25h-10.286zM1420.952 160.625h10.286v-22.25h-10.286zM1385.326 188.125h10.286v-13.813h-10.286zM1403.139 188.125h10.286v-13.813h-10.286zM1420.952 188.125h10.286v-13.813h-10.286z"/>
            <path fill="#626262" d="M1247.072 110.125h-38.85l-25.923 23h90.694z"/>
            <path fill="#4F3E39" d="M1219.165 126.625h4.452v-11h-4.452zM1231.678 126.625h4.452v-11h-4.452z"/>
            <path fill="#424242" d="M1222.832 110.124h9.63v-10.75h-9.63z"/>
            <path fill="#626262" d="M1427.707 110.125h-38.85l-25.923 23h90.694z"/>
            <path fill="#4F3E39" d="M1399.8 126.625h4.452v-11h-4.452zM1412.312 126.625h4.453v-11h-4.453z"/>
            <path fill="#424242" d="M1403.467 110.124h9.63v-10.75h-9.63z"/>
            <path fill="#626262" d="M1317.965 113.624l-31.925 19.501h63.848z"/>
        </g>
        <g transform="translate(1026 148)">
            <g transform="translate(4 27.39)">
                <mask id="l" fill="#fff">
                    <use xlink:href="#k"/>
                </mask>
                <path d="M28.633 5.21c.261.058.548.098.851.122l-.661-.032a2.623 2.623 0 0 0-.19-.09m-8.199 2.334c-.011.022-.027.044-.042.065l-.284-.063-1.402.627c-.232.01-.489.033-.762.068-.409-.373-1.198-1.402.556-2.207 1.016-.462 3.118-.651 5.103-.685-1.479.514-2.726 1.325-3.169 2.195m17.35.634c-.672-.215-1.691-.222-2.28-.014-.192.069-.313.151-.364.237-1.332.123-3.11.208-4.451-.076-1.363-.283-1.627-1.17-1.532-1.96.192-.217.252-.43.159-.63.056-.155.119-.293.176-.402 1.255.105 2.791-.049 4.099-.426 1.644-.116 3.465-.098 4.124-.764.897-.914-2.217-1.966-1.522-2.88-1.932-.239-4.643-.497-6.245.026-.003-.067.031-.122.035-.19-1.319.535-3.072 1.391-2.218 2.224a.627.627 0 0 1 .13-.097 1.85 1.85 0 0 0-.124.105l-.006-.008a.289.289 0 0 0-.039.051c-.583.547-.624 1.083-.076 1.459-1.758-.135-7.741-.365-10.393.874-2.414 1.13-1.525 2.383-1.006 2.853-4.474 1.081-11.094 3.846-11.094 3.846l3.789.305-4.508 2.402s-2.866.468-4.046.745c-1.186.282 3.506.057 3.506.057l1.66-.777 5.084-2.291 1.043.084-4.957 2.207h-.045l-1.924.757s3.552.196 3.581-.034c.034-.238-.599-.702-.599-.702l-.078-.001 5.633-2.097 4.262.342c5.587-3.01 5.452-4.082 5.224-4.378l1.373-.569-.189-.043.142-.036c1.373-.323 2.549-.682 3.438-1.048.219.61.827 1.174 2.197 1.441 1.925.38 4.266.273 5.938.126h.003c.685.197 1.706.203 2.278.014.574-.188.494-.516-.178-.732" mask="url(#l)"/>
            </g>
            <g transform="translate(0 10.39)">
                <mask id="n" fill="#fff">
                    <use xlink:href="#m"/>
                </mask>
                <path fill="#D1A988" d="M7.304 1.535L6.693.175C6.017.476.08 3.24 0 6.805c-.08 3.637 4.358 5.786 4.547 5.875l.64-1.347C5.15 11.316 1.433 9.51 1.493 6.84c.049-2.232 4.21-4.585 5.81-5.304" mask="url(#n)"/>
            </g>
            <path fill="#D1A988" d="M18.897 10.89a1.493 1.493 0 0 0-1.293 2.234c-.654 1.105-1.704 2.356-3.161 2.515-2.22.24-5.094-3.58-6.015-5.071l-1.27.782c.388.632 3.9 6.158 7.447 5.77 2.072-.223 3.465-1.855 4.29-3.247h.002a1.492 1.492 0 1 0 0-2.983"/>
            <path fill="#98ECED" d="M9.769 19.13c1.385-4.155.617-8.286-2.522-8.318-3.322-.035-4.085 4.589-1.74 8.318.967 1.54-1.315 3.623-1.315 3.623h6.852s-1.94-1.63-1.275-3.623"/>
            <path fill="#D1A988" d="M6.43 40.797h1.137L7.14 25.879h1.066l.496 14.988.924.143 1.418-18.257H4.192z"/>
            <path fill="#331A08" d="M6.43 40.797s-1.776 1.42-2.345 2.202c-.568.78 3.623.143 3.623.143l-.141-2.345H6.43zM9.728 40.726H8.654l-.137 2.344s4.032.639 3.482-.142c-.55-.781-2.271-2.202-2.271-2.202"/>
            <path fill="#98ECED" d="M9.696 20.942H5.47c-2.878 1.385-3.892 13-3.892 13h13.1c-2.245-12.112-4.98-13-4.98-13"/>
            <path fill="#D1A988" d="M7.176 1.797c-1.903 0-3.446 2.035-3.446 4.543 0 2.509 1.543 4.543 3.446 4.543 1.902 0 3.445-2.034 3.445-4.543 0-2.508-1.543-4.543-3.445-4.543"/>
            <mask id="p" fill="#fff">
                <use xlink:href="#o"/>
            </mask>
            <path fill="#331A08" d="M5.257 21.261h4.689v-1.989H5.257zM4.028 8.22a.698.698 0 0 0 .163.255l-.142-.243-.02-.011" mask="url(#p)"/>
            <path fill="#331A08" d="M6.61 0C5 .918 2.815 2.241 2.49 3.938c-.103-.097-.159-.193-.259-.294-.123 1.531-.072 3.772 1.797 4.577-.338-.83.457-2.567 1.193-3.244 1.227-1.128 1.931-1.146 2.772.17.126-.155.363-.259.488-.426 1.144.42 1.848 2.191 1.67 3.231.871-1.47 2.568-2.761 1.823-4.56C11.107 1.297 7.518 1.795 6.61 0" mask="url(#p)"/>
        </g>
        <g>
            <g transform="translate(976 150.208)">
                <mask id="r" fill="#fff">
                    <use xlink:href="#q"/>
                </mask>
                <path d="M22.388 8.6c-.89.451-3.065.359-4.415.272a.023.023 0 0 1-.009-.008l.021.006 1.504-.559c.749.11 1.494.221 2.227.412-.173-.222.216-.576.855-.972.174.365.164.674-.183.849zm-8.474-.996a3.942 3.942 0 0 0-.822.041c-.518-.416-1.725-1.638-.423-2.437.327-.201.869-.328 1.523-.399-.814.42-1.547.746-1.936.785.893.385 1.528.805 2.221 1.202l-.563.808zm11.885-6.015C24.122.553 21.603.796 20.228 1.37c-.888.376-1.619.849-2.37 1.324-.267.17-1.186.738-2.219 1.326-1.668-.017-3.321.164-4.219.732-1.884 1.194-.25 2.751.36 3.208l-.166.135c-2.689 1.193-5.129 3.763-5.129 3.763l.36.041-2.974 2.272s-2.551.428-3.557.691c-1.012.272 3.544.059 3.544.059l1.135-.716 3.548-2.114 1.044.118-3.437 2.008-.044-.001-1.399.685s3.703.175 3.557-.023c-.144-.207-1.099-.629-1.099-.629l-.078-.004 4.112-1.855.228.027c5.062-1.544 6.451-2.443 6.684-3.002 1.676.097 4.36.199 5.563-.379.779-.376.492-1.11-.079-1.86 1.373-.714 3.036-1.406 3.453-1.677.724-.473.982-.996.708-1.824-.21-.693-.967-1.788-1.955-2.086z" mask="url(#r)"/>
            </g>
            <path fill="#331A08" d="M983.84 128.431c-.14-1.595-.615-2.787-1.755-3.919-.924-.918-2.615-1.874-3.562-1.375-2.194.038-3.6 2.58-3.912 4.548-.202 1.264-.19 2.55-.19 3.848 0 1.04-.065 7.693-.782 8.548 2.244.307 3.912 1.48 6.289 1.395 1.832-.065 3.048-1.207 4.742-1.482-1.384-1.219-.681-9.85-.83-11.563"/>
            <path fill="#D1A988" d="M979.19 124.223c-1.907 0-3.452 2.025-3.452 4.522 0 2.498 1.545 4.522 3.452 4.522 1.906 0 3.452-2.024 3.452-4.522 0-2.497-1.546-4.522-3.452-4.522"/>
            <path fill="#D1A988" d="M981.787 141.054c1.39-4.137.62-8.25-2.526-8.28-3.328-.035-4.092 4.567-1.744 8.28.97 1.532-1.317 3.607-1.317 3.607h6.865s-1.943-1.622-1.278-3.607"/>
            <path fill="#D1A988" d="M978.443 162.624h1.14l-.427-14.852h1.066l.499 14.922.925.142 1.42-18.175H976.2z"/>
            <path fill="#D1A988" d="M979.317 133.882l-.61-1.355c-.679.302-6.627 3.052-6.706 6.601-.08 3.622 4.365 5.76 4.555 5.85l.642-1.34c-.037-.02-3.763-1.819-3.703-4.477.05-2.22 4.22-4.564 5.822-5.279"/>
            <path fill="#D1A988" d="M979.745 132.527l-.61 1.355c1.601.715 5.772 3.059 5.821 5.28.06 2.658-3.665 4.457-3.703 4.475l.642 1.34c.19-.09 4.636-2.226 4.555-5.848-.079-3.55-6.026-6.3-6.705-6.602"/>
            <path fill="#F95006" d="M978.443 162.624s-1.78 1.414-2.349 2.191c-.57.78 3.63.143 3.63.143l-.142-2.334h-1.139zM981.746 162.554h-1.075l-.138 2.332s4.041.637 3.49-.14c-.552-.778-2.277-2.192-2.277-2.192M981.715 142.857h-4.234c-2.885 1.379-.271 12.943-.271 12.943h5.228c3.062-12.52-.723-12.943-.723-12.943"/>
            <path fill="#F95006" d="M979.44 136.812l-2.99-2.335h-1.281l.213 1.909 2.099 6.684h4.734l.855-6.471.106-2.122h-1.495z"/>
            <path fill="#331A08" d="M979.44 123.55c-1.146-.242-2.527.436-2.967 1.592-.21.553-1.27 2.066-1.83 3.181h8.41c-.083-.815-.293-1.593-.6-2.149-.637-1.153-1.69-2.342-3.013-2.624"/>
        </g>
        <g>
            <g transform="translate(940 171.042)">
                <mask id="t" fill="#fff">
                    <use xlink:href="#s"/>
                </mask>
                <path d="M30.732 6.606a.022.022 0 0 1-.005.008c-.016.021-.031.043-.05.062-.111.126-.28.238-.523.329-.946.355-2.487.493-3.85.552a.028.028 0 0 1 .012-.004l.144-.059a.275.275 0 0 0 .043-.017l.393-.16c.012-.006.024-.012.038-.016l.164-.069.054-.024.168-.071.041-.018.216-.093.006-.003c.069-.029.135-.06.203-.091a.936.936 0 0 1 .056-.023c.054-.026.109-.051.164-.075l.057-.027a11.27 11.27 0 0 0 .214-.1l.218-.103.041-.021a8.92 8.92 0 0 0 .17-.083c.022-.009.041-.021.063-.031.053-.027.106-.055.159-.08.018-.009.035-.019.053-.027l.208-.108a.023.023 0 0 0 .009-.008 5.707 5.707 0 0 0 .248-.133l.143-.079.059-.036a20.828 20.828 0 0 1 .19-.111l.181-.111.043-.028c.045-.028.088-.056.131-.086l.055-.037c.04-.027.078-.052.116-.08a3.792 3.792 0 0 0 .202-.148h.002c.268.43.4.867.164 1.209m-12.498-.352c-.342-.47-.549-1.275.941-1.927.187-.084.41-.157.658-.223.08-.022.164-.041.25-.063.014-.004.028-.005.043-.009.075-.016.153-.034.231-.049l.062-.012.227-.042.076-.014a29.201 29.201 0 0 1 .31-.047l.237-.034.086-.009a80.555 80.555 0 0 1 .33-.039l.252-.026c.029-.002.056-.005.086-.009l.265-.021.08-.007.284-.021.064-.003c.104-.008.209-.014.313-.019l.04-.003c.483-.024.972-.038 1.454-.044h.716c-2.81.728-5.667 1.994-7.005 2.621M37.218.58c-1.436-.634-4.268-.431-6.323.457-1.633.706-2.234 1.565-1.633 2.131a7.789 7.789 0 0 0-.467-.025c-.401-.034-1.274-.1-2.381-.139h-.034c-.031-.002-.062-.002-.094-.002-.084-.004-.17-.006-.256-.008l-.08-.001a16.027 16.027 0 0 0-.314-.004l-.11-.002c-.107-.002-.216-.002-.327-.002H24.841c-.039 0-.08 0-.119.002-.11 0-.221.002-.334.004l-.117.002c-.091.001-.181.005-.272.007-.037.002-.076.002-.113.002-.113.006-.227.01-.338.014l-.137.005-.3.015c-.048.003-.096.005-.143.009l-.277.018-.143.01a19.908 19.908 0 0 0-.473.04 10.938 10.938 0 0 0-.385.036l-.326.037c-.049.006-.098.014-.147.019-.085.01-.169.022-.251.034a4.562 4.562 0 0 0-.174.024c-.086.013-.172.025-.256.039l-.145.025c-.102.017-.203.035-.304.054l-.129.024-.215.047a1.812 1.812 0 0 0-.132.027c-.096.021-.191.044-.285.066l-.128.033c-.07.018-.138.038-.208.055-.044.014-.09.026-.135.039a32.79 32.79 0 0 0-.231.072l-.113.038c-.084.029-.167.056-.246.087a6.303 6.303 0 0 0-.326.133c-2.759 1.234-1.505 2.594-1.075 2.94L4.837 13.119s-2.914.464-4.123.739c-1.213.281 4.362.058 4.362.058l1.724-.755 11.496-4.875 1.721.272-1.491 2.276-3.328 2.129h-.003l-1.899.614s4.387.206 4.406.023c.024-.189-.623-.574-.623-.574l-.142-.004 4.698-2.07 3.294-2.853c1.92-.038 4.801-.171 6.516-.794 2.116-.77.699-2.367-.057-3.123-.023-.15-.106-.291-.264-.422 1.568.155 3.632-.088 5.162-.674 1.952-.748 2.37-1.869.932-2.506" mask="url(#t)"/>
            </g>
            <path fill="#936444" d="M945.542 153l-.61 1.354c1.6.715 5.771 3.06 5.821 5.28.06 2.657-3.666 4.457-3.703 4.474l.642 1.342c.19-.09 4.636-2.228 4.555-5.849-.079-3.549-6.027-6.3-6.705-6.602M944.347 144.059c-1.908 0-3.453 2.024-3.453 4.52 0 2.499 1.545 4.524 3.453 4.524 1.906 0 3.452-2.025 3.452-4.523 0-2.497-1.546-4.521-3.452-4.521"/>
            <path fill="#936444" d="M944.417 152.607c-5.034-.05-3.914 11.89-3.914 11.89h8.574s.373-11.837-4.66-11.89"/>
            <path fill="#4781A5" d="M949.077 164.496h-8.574l2.241 17.964h1.993l-.426-14.852h1.922l3.676 6.221 2.374 7.428 1.78.14-1.276-8.132z"/>
            <path fill="#936444" d="M943.62 154.355l-.61-1.355c-.679.3-6.628 3.052-6.707 6.6-.08 3.622 4.366 5.76 4.554 5.85l.644-1.341c-.039-.018-3.764-1.817-3.703-4.475.05-2.22 4.218-4.564 5.821-5.28"/>
            <path fill="#4C423C" d="M942.744 182.46s-1.778 1.414-2.349 2.191c-.569.778 4.485.142 4.485.142l-.143-2.333h-1.993zM954.164 181.115h-1.93l-.137 2.334s4.894.638 4.342-.142c-.55-.777-2.275-2.192-2.275-2.192"/>
            <path fill="#DBCBBF" d="M947.562 154.055a5.04 5.04 0 0 1-3.322 1.257 5.033 5.033 0 0 1-3.293-1.233c-1.865 1.11-4.326 2.97-4.614 5.167a5.073 5.073 0 0 1 1.589-.26c.42-1.195 1.842-2.377 3.23-3.276-1.141 3.523-.65 8.786-.65 8.786h8.576s.152-4.86-1.062-8.366c1.042.739 2.013 1.619 2.468 2.52a5.08 5.08 0 0 1 1.747.724c-.21-2.27-2.765-4.19-4.67-5.32"/>
            <g transform="translate(916 151.042)">
                <mask id="v" fill="#fff">
                    <use xlink:href="#u"/>
                </mask>
                <path fill="#D1A988" d="M7.462 2.288L6.893.908C5.417 1.047.181 2.665.003 7.333c-.137 3.636 4.181 5.915 4.366 6.011l.682-1.328C5.014 12 1.354 10.08 1.492 7.412c.118-2.228 4.35-4.455 5.97-5.125" mask="url(#v)"/>
            </g>
            <path fill="#D1A988" d="M932.664 150.2c-2.937 2.563-7.53 1.835-7.577 1.827l-.27 2.335c.115.02 1.61.26 3.507.027 1.67-.206 3.875-1.198 5.5-2.61 1.485-1.294 2.23-3.513 2.623-5.758l-1.552.192c-.374 1.678-1.119 3.016-2.23 3.987"/>
            <path fill="#D1A988" d="M936.154 144.367c-.795-.203-1.618.345-1.84 1.226-.222.88.242 1.76 1.035 1.965.794.205 1.617-.343 1.84-1.225.222-.88-.242-1.76-1.035-1.966"/>
            <path fill="#263E59" d="M922.375 181.54l1.35.041.023-14.924 1.065.032.044 14.997 1.346.183 2.395-18.192-8.553-.258z"/>
            <path fill="#331A08" d="M922.375 181.54s-2.457 1.348-3.049 2.111c-.592.764 4.468.278 4.468.278l-.069-2.348-1.35-.04zM926.312 181.588l-1.5-.045-.207 2.338s4.863.788 4.336-.01c-.525-.798-2.63-2.283-2.63-2.283"/>
            <path fill="#F95006" d="M932.914 152.486c-.422-.521-.844-1.04-1.264-1.56-2.094 1.23-4.602 1.255-5.823 1.176a2.846 2.846 0 0 0-1.517-.503 2.656 2.656 0 0 0-1.475.358c-1.283.142-5.018 1.295-6.354 4.316a5.136 5.136 0 0 1 1.7.62c.67-.849 1.733-1.638 2.777-2.274-1.245 3.502-.913 8.8-.913 8.8l8.553.257s.346-5.64-1.082-9.212c.258-.016.53-.04.808-.074 1.374-.17 3.112-.872 4.59-1.904"/>
            <path fill="#D1A988" d="M924.072 143.001c-1.902-.058-3.505 1.93-3.58 4.437-.076 2.507 1.403 4.586 3.306 4.644 1.902.057 3.504-1.929 3.58-4.436.076-2.508-1.404-4.587-3.306-4.645"/>
            <path fill="#331A08" d="M920.62 147.871l.104.11a.842.842 0 0 1-.102-.16c0 .017 0 .032-.002.05M922.604 142.149c-1.232.34-2.26 1.113-2.415 2.405-.087.717.054 2.559.434 3.267-.1-4.444 5.997-3.237 6.717-.05.063-1.972-.011-3.047-1.382-4.506-1.008-1.072-1.876-1.524-3.354-1.116"/>
            <g transform="translate(1230 159)">
                <mask id="x" fill="#fff">
                    <use xlink:href="#w"/>
                </mask>
                <path d="M18.356 6.523c-.324-.475-.499-1.281 1.026-1.893.462-.183 1.125-.316 1.89-.408 1.274-.146 2.829-.168 4.232-.131-2.857.654-5.78 1.844-7.148 2.432m27.341-.91c-.466-.313-1.509-.456-2.329-.319-.528.09-.831.271-.851.465a20.658 20.658 0 0 1-3.868.157c-.47-.02-.925-.057-1.369-.103-2.65-.251-4.747-.919-5.696-1.27a.961.961 0 0 0-.288-.284c1.548.146 3.524-.061 5.023-.592a5.94 5.94 0 0 0 .54-.218c1.129-.428 1.696-.785 1.756-1.54.069-.673-.239-1.117-1.7-1.495-1.223-.306-2.65-.387-3.831.01-.575.195-1.72.744-2.178 1.118-1.727.704-2.319 1.59-1.562 2.162l-.123-.009-.02-.004a12.754 12.754 0 0 0-.098-.025l-.01-.002a11.87 11.87 0 0 0-.409-.086l-.045-.009-.138-.026-.058-.01-.151-.026-.05-.009a27.317 27.317 0 0 0-.616-.092h-.005l-.212-.028c-.015-.002-.03-.005-.046-.006l-.22-.026-.039-.004c-.425-.048-.89-.088-1.384-.116h-.004c-2.289-.111-5.21.07-7.564 1.055-2.81 1.177-1.581 2.568-1.187 2.904L5.222 13.059s-3.566.35-4.788.588c-1.227.248 4.348.193 4.348.193l1.768-.714L18.323 8.55l.953.177L7.72 13.162l-.043-.001-2.031.683s4.375.324 4.435.106c.065-.227-.929-.713-.929-.713l-.073-.004 15.956-4.738s4.604-1.477 6.125-2.82l.333.087.032.008c.122.028.244.058.372.089.091.021.184.042.281.062l.098.02.204.04.119.023.201.036.129.023.219.037.124.019c.109.018.222.036.335.052l.152.022.21.029.188.026.18.024.21.025c.055.008.109.015.162.02a8.5 8.5 0 0 0 .23.027c.042.006.086.01.13.015.295.034.597.065.904.093l.099.011.285.025c.037.004.076.006.115.009l.284.025.102.008c.526.041 1.054.075 1.574.098 1.677.085 3.377-.068 4.957-.316a4.905 4.905 0 0 0 1.707.071c.805-.118 1.073-.462.601-.77" mask="url(#x)"/>
            </g>
        </g>
        <path fill="#5CB4F9" d="M249.104 202.976s77.499 4.27 146.147-25.955c68.647-30.224 9.785-43.824 9.785-43.824s79.064-19.15-77.903-28.605c-156.968-9.455-423.788 9.157-423.788 9.157l-354.354 88.919 700.113.308z"/>
        <path fill="#6DBEFF" d="M229.104 202.976s77.499.27 146.147-29.955c68.647-30.224 9.785-39.824 9.785-39.824s79.064-19.15-77.903-28.605c-156.968-9.455-423.788 9.157-423.788 9.157l-354.354 88.919 700.113.308z"/>
        <path fill="#5BB7FF" d="M189.104 202.976s77.499.27 146.147-29.955c68.647-30.224 9.785-39.824 9.785-39.824s79.064-19.15-77.903-28.605c-156.968-9.455-423.788 9.157-423.788 9.157l-354.354 88.919 700.113.308z"/>
        <path fill="#50B2FF" d="M169.104 202.976s77.499.27 146.147-29.955c68.647-30.224 9.785-39.824 9.785-39.824s79.064-19.15-77.903-28.605c-156.968-9.455-423.788 9.157-423.788 9.157l-354.354 88.919 700.113.308z"/>
        <g>
            <path fill="#7CD146" d="M39.967 76.138c5.647 5.02 7.317 9.417 7.317 9.417l5.817.75c3.206-3.496 8.013-5.872 8.013-5.872-9.087-10.707-21.147-4.295-21.147-4.295"/>
            <path fill="#4C981A" d="M52.502 85.99l26.304 13.85c-5.345-35.025-26.304-13.85-26.304-13.85M13.826 138.273c39.52-15.425 34.825-52.372 34.825-52.372-31.916 7.66-34.825 52.372-34.825 52.372"/>
            <g transform="translate(47.032 84.518)">
                <mask id="z" fill="#fff">
                    <use xlink:href="#y"/>
                </mask>
                <path fill="#387F0A" d="M.252 1.037l27.002 29.755 15.687 13.246c-4.032-53.619-42.69-43-42.69-43" mask="url(#z)"/>
            </g>
            <path fill="#387F0A" d="M42.6 148.624s15.865-18.612 7.431-61.695c0 0-23.431 30.848-7.43 61.695"/>
            <path fill="#4C981A" d="M65.924 152.736s12.352-34.637-14.05-65.755c-1.623-1.913-5.91 37.718 14.05 65.755"/>
            <path fill="#438D10" d="M65.924 152.736c11.265-38.024-12.459-63.51-12.816-64.263-.357-.753 12.816 64.263 12.816 64.263"/>
            <path fill="#387F0A" d="M5.017 124.7c25.532-9.913 42.267-39.145 42.267-39.145-43.655-11.21-42.267 39.144-42.267 39.144"/>
            <path fill="#5BAE24" d="M-5.141 95.063s24.492-22.078 55.846-6.308c0 0-27.923-48.395-55.846 6.308"/>
            <path fill="#387F0A" d="M13.826 138.273c38.206-13.235 33.458-52.718 33.458-52.718l-33.458 52.718z"/>
            <path fill="#70BA47" d="M50.031 85.42s21.55 22.83 22.446 59.78c0 0 19.29-51.339-22.446-59.78"/>
            <path fill="#66A93A" d="M51.853 85.555l1.682 3.453C83.07 100.006 72.478 145.2 72.478 145.2s8.262-20.127 3.186-38.572c-5.076-18.445-23.811-21.073-23.811-21.073"/>
            <path fill="#7CD146" d="M16.066 80.344C-1.851 93.41.389 120.445.389 120.445c11.37-40.101 46.895-34.89 46.895-34.89s-13.301-18.278-31.218-5.211"/>
            <path fill="#2E6D07" d="M16.942 89.368C7.171 98.213 4.854 117.293 5.017 124.7c0 0 15.269-39.625 42.267-39.145 0 0-20.57-5.033-30.342 3.813"/>
            <path fill="#B78667" d="M-33 213.143s1.951 1.59 14.395 1.449c0 0 47.492-32.918 69.207-123.66a19.109 19.109 0 0 1-4.183-1.924C42.36 105.004 22.821 170.844-33 213.143"/>
            <path fill="#9A6F53" d="M19.897 152.449c.999 3.123 2.17 6.195 3.419 9.228l.262.62c10.056-18.181 19.92-41.678 27.024-71.364a19.118 19.118 0 0 1-4.183-1.925c-2.344 9.237-9.85 35.094-26.522 63.44"/>
            <path fill="#7CD146" d="M48.764 84.52c-11.307-2.82-19.86 13.547-10.926 56.757 0 0 31.88-51.534 10.926-56.758"/>
            <path fill="#89E152" d="M48.824 85.87c-2.848 6.858-10.985 55.407-10.985 55.407 6.87-9.63 19.01-34.428 18.059-46.714-.95-12.285-7.074-8.693-7.074-8.693M24.199 80.83C12.5 85.514 1.868 97.097.389 120.445c0 0 6.739-33.301 42.052-35.064l4.843.174S37.24 75.607 24.199 80.83"/>
        </g>
    </g>
</svg>
