<svg xmlns="http://www.w3.org/2000/svg" width="22" height="23" viewBox="0 0 22 23">
    <path fill="#000" fill-rule="nonzero" d="M21.533 5.072a8.82 8.82 0 0 1-2.537.695 4.429 4.429 0 0 0 1.942-2.444 8.85 8.85 0 0 1-2.805 1.072 4.418 4.418 0 0 0-7.528 4.03 12.542 12.542 0 0 1-9.107-4.617A4.404 4.404 0 0 0 .901 6.03c0 1.532.78 2.884 1.965 3.677a4.403 4.403 0 0 1-2.001-.553v.056a4.42 4.42 0 0 0 3.544 4.331 4.406 4.406 0 0 1-1.996.077 4.424 4.424 0 0 0 4.128 3.068 8.861 8.861 0 0 1-5.487 1.891c-.356 0-.708-.02-1.054-.062A12.504 12.504 0 0 0 6.772 20.5c8.126 0 12.57-6.732 12.57-12.57 0-.191-.005-.382-.013-.571a8.994 8.994 0 0 0 2.204-2.287z" opacity=".6"/>
</svg>
